<svg xmlns="http://www.w3.org/2000/svg" width="120.716" height="105.364" id="google-my-business"><defs><linearGradient id="a" x2="1" y1=".5" y2=".5" gradientUnits="objectBoundingBox"><stop offset=".03" stop-color="#4079d8"></stop><stop offset="1" stop-color="#4989f5"></stop></linearGradient></defs><g data-name="google my business"><g data-name="Group 23"><rect width="105.626" height="78.98" fill="#4989f5" data-name="Rectangle 3172" rx="6" transform="translate(6.064 26.384)"></rect><path fill="url(#a)" d="M154.132 227.75H59.2c-2.941 0-5.229 22.759-5.229 25.7l51.988 53.874h48.174a5.362 5.362 0 0 0 5.347-5.347V233.1a5.362 5.362 0 0 0-5.348-5.35Z" data-name="Path 199" transform="translate(-47.847 -201.959)"></path><path fill="#3c4ba6" d="M30.182 39.61h30.179V.001h-25.66Z" data-name="Path 200"></path><path fill="#7babf7" d="M90.54 39.61H60.361V.001h25.66Zm21.15-32.1.037.135c-.008-.048-.027-.092-.037-.136Z" data-name="Path 201"></path><path fill="#3f51b5" d="m111.728 7.643-.037-.135A9.545 9.545 0 0 0 102.371 0h-16.35l4.515 39.61h30.179Z" data-name="Path 202"></path><path fill="#7babf7" d="m9.032 7.51-.037.135c.009-.048.027-.092.037-.135Z" data-name="Path 203"></path><path fill="#7babf7" d="m8.994 7.643.037-.135A9.545 9.545 0 0 1 18.35 0H34.7l-4.521 39.61H0Z" data-name="Path 204"></path></g><path fill="#709be0" fill-rule="evenodd" d="M30.233 39.6a15.081 15.081 0 0 1-30.162 0Z" data-name="Path 205"></path><path fill="#3c4ba6" fill-rule="evenodd" d="M60.395 39.6a15.081 15.081 0 0 1-30.162 0Z" data-name="Path 206"></path><path fill="#709be0" fill-rule="evenodd" d="M90.557 39.6a15.081 15.081 0 1 1-30.162 0Z" data-name="Path 207"></path><path fill="#3c4ba6" fill-rule="evenodd" d="M120.716 39.6a15.081 15.081 0 0 1-30.162 0Z" data-name="Path 208"></path><path fill="#fff" d="M105.635 80.459a28.393 28.393 0 0 0-.268-2.211h-16.45c0 2.3 0 4.812-.009 7.114h9.53a8.288 8.288 0 0 1-3.489 5.32s0-.04-.007-.041a9.985 9.985 0 0 1-3.857 1.506 11.328 11.328 0 0 1-4.174-.018 10.428 10.428 0 0 1-3.893-1.687 10.86 10.86 0 0 1-3.827-4.89c-.059-.153-.113-.307-.169-.464v-.017l.015-.011a10.551 10.551 0 0 1-.006-6.789 10.922 10.922 0 0 1 2.531-4.118 10.282 10.282 0 0 1 10.361-2.7 9.418 9.418 0 0 1 3.77 2.219l3.215-3.215c.567-.573 1.156-1.128 1.7-1.72a16.994 16.994 0 0 0-5.632-3.488 17.708 17.708 0 0 0-11.78-.1q-.2.068-.4.142a17.606 17.606 0 0 0-9.51 8.523 17.319 17.319 0 0 0-1.523 4.4A17.5 17.5 0 0 0 84.38 98.568a18.717 18.717 0 0 0 8.951.094 15.391 15.391 0 0 0 11.588-11.014 20.309 20.309 0 0 0 .716-7.189Z" data-name="Path 209"></path></g></svg>