<svg xmlns="http://www.w3.org/2000/svg" enable-background="new 0 0 24 24" viewBox="0 0 24 24" id="wix"><path d="M3.677 16.456c.534-.269.786-.477 1.11-1.73.288-1.117 1.092-4.398 1.167-4.632.178-.555.416-.513.578 0 .074.234.879 3.516 1.167 4.632.322 1.253.576 1.461 1.11 1.73.406.205 1.218.147 1.218.147l2.459-9.211c-.916-.114-1.868.332-2.074 1.31h-.002L9.125 13.63 8.057 9.597c-.288-1.189-.78-1.803-1.816-1.803-1.026 0-1.525.601-1.816 1.803L3.357 13.63 2.073 8.703C1.865 7.71.894 7.281 0 7.392l2.459 9.211C2.459 16.603 3.271 16.661 3.677 16.456zM14.752 7.382L14.752 7.382c0 .001-.655-.017-1.021.173-.476.247-.653.663-.653 1.815 0 0 .242-.231.598-.359C14.83 8.596 14.752 7.867 14.752 7.382zM14.104 16.475c.522-.264.642-.518.647-1.663V9.229h-.001V8.896c0 0-.154.235-.505.43-.226.125-.442.209-.674.32-.568.27-.495.518-.495 1.308v5.649C13.078 16.602 13.699 16.68 14.104 16.475zM24 7.423c0 0-1.317-.222-1.969.366-.498.449-.915 1.098-2.032 2.692-.018.027-.234.392-.49 0-1.098-1.569-1.531-2.24-2.032-2.692-.652-.588-1.969-.366-1.969-.366l3.12 4.597-3.111 4.582c0 0 1.371.172 2.023-.416.431-.388.659-.757 1.969-2.627.255-.391.471-.028.49 0 1.102 1.575 1.471 2.157 1.993 2.627.652.588 1.999.416 1.999.416l-3.112-4.582h.001L24 7.423z"></path></svg>